<?xml version="1.0" encoding="utf-8"?>
<!-- Generator: Adobe Illustrator 25.1.0, SVG Export Plug-In . SVG Version: 6.00 Build 0)  -->
<svg version="1.1" id="레이어_1" xmlns="http://www.w3.org/2000/svg" xmlns:xlink="http://www.w3.org/1999/xlink" x="0px"
	 y="0px" viewBox="0 0 255.8 32.3" style="enable-background:new 0 0 255.8 32.3;" xml:space="preserve">
<style type="text/css">
	.st0{fill:#020202;}
</style>
<g id="레이어_2_1_">
	<g id="레이어_1-2">
		<g id="레이어_2-2">
			<g id="레이어_1-2-2">
				<path class="st0" d="M238.8,0.8l-12.9,30.9h4.9l3.2-7.9h13.5l0.1,0.2l3.1,7.7h5.1L243,0.8H238.8z M235.3,20.3l5.5-13.8l5.5,13.8
					H235.3z"/>
				<path class="st0" d="M82.5,13c-4.1-1.1-5.8-2.5-5.8-4.9c0-2.7,2.1-4.3,5.5-4.3c2.7,0.1,5.4,1,7.8,2.4l1-3.4
					C88.5,1,85.4,0,82.3,0c-6.2,0-10.2,3.3-10.2,8.4c0,4.7,3,7.8,8.8,9.2c5.3,1.4,7,2.9,7,5.9s-2.5,5-6.1,5
					c-3.5-0.1-6.8-1.5-9.4-3.9l-1.1,3.9c3,2.4,6.7,3.7,10.5,3.6c5,0,10.9-2.4,10.9-9.3C92.6,17.7,89.6,14.7,82.5,13L82.5,13z"/>
				<path class="st0" d="M47.1,0.8L34.2,31.6h4.9l3.2-7.9h13.5l0.1,0.2l3.1,7.7h5.1L51.3,0.8H47.1z M43.6,20.3l5.5-13.8l5.5,13.8
					H43.6z"/>
				<rect x="211.9" y="0.8" class="st0" width="5.2" height="30.9"/>
				<path class="st0" d="M148.1,0.8l-12.9,30.9h4.9l3.2-7.9h13.5l0.1,0.2l3.1,7.7h5.1L152.4,0.8H148.1z M144.6,20.3l5.5-13.8
					l5.5,13.8H144.6z"/>
				<path class="st0" d="M184.5,0.8h-10.5v30.9h10.5c10.8,0,17.3-5.8,17.3-15.4S195.4,0.8,184.5,0.8z M184.2,27.5h-4.9V4.8h4.9
					c8.1,0,12.2,3.8,12.2,11.4S192.3,27.5,184.2,27.5z"/>
				<path class="st0" d="M0,16.2c0,10.6,8.2,16.1,16.3,16.1c3.7,0.1,7.3-1,10.4-3v-4.4c-2.7,2.2-6.1,3.3-9.6,3.4
					c-6.8,0-11.4-4.9-11.4-12.1S10.1,4.1,17,4.1c3.5,0,6.9,1.2,9.7,3.3V3C23.6,1,20-0.1,16.3,0C8.2,0.1,0,5.6,0,16.2z"/>
				<path class="st0" d="M101,16.2c0,10.6,8.2,16.1,16.3,16.1c3.7,0.1,7.3-1,10.4-3v-4.4c-2.7,2.2-6.1,3.3-9.6,3.4
					c-6.8,0-11.4-4.9-11.4-12.1S111.2,4.1,118,4.1c3.5,0,6.9,1.2,9.7,3.3V3c-3.1-2-6.7-3.1-10.4-3C109.2,0.1,101,5.6,101,16.2z"/>
			</g>
		</g>
	</g>
</g>
</svg>
