<svg xmlns="http://www.w3.org/2000/svg" viewBox="0 0 255.83 32.3"><defs><style>.cls-1{fill:#fff;}</style></defs><g id="레이어_2" data-name="레이어 2"><g id="레이어_1-2" data-name="레이어 1"><g id="레이어_2-2" data-name="레이어 2"><g id="레이어_1-2-2" data-name="레이어 1-2"><path class="cls-1" d="M238.77.75,225.92,31.61h4.91l3.19-7.9h13.49l.08.2,3.11,7.7h5.13L243,.75Zm-3.49,19.59,5.51-13.79,5.46,13.79Z"/><path class="cls-1" d="M82.54,13c-4.11-1.1-5.79-2.53-5.79-4.94,0-2.68,2.06-4.28,5.5-4.28A16.11,16.11,0,0,1,90,6.19l1-3.4A15.21,15.21,0,0,0,82.3,0C76.07,0,72.05,3.31,72.05,8.44c0,4.68,3,7.79,8.77,9.25,5.32,1.44,7,2.87,7,5.91s-2.46,5-6.12,5a14.35,14.35,0,0,1-9.39-3.85l-1.1,3.86A16,16,0,0,0,81.7,32.23c5,0,10.88-2.44,10.88-9.29,0-5.22-3-8.21-10-10Z"/><path class="cls-1" d="M47.11.75,34.25,31.61h4.91l3.2-7.9H55.85l.08.2L59,31.61h5.13L51.31.75Zm-3.5,19.59L49.13,6.55l5.46,13.79Z"/><rect class="cls-1" x="211.85" y="0.75" width="5.23" height="30.86"/><path class="cls-1" d="M148.14.75,135.29,31.61h4.91l3.2-7.9h13.48l.09.2,3.11,7.7h5.12L152.35.75Zm-3.49,19.59,5.52-13.79,5.46,13.79Z"/><path class="cls-1" d="M184.54.75H174.08V31.61h10.46c10.81,0,17.26-5.77,17.26-15.43S195.35.75,184.54.75Zm-.31,26.8h-4.92V4.8h4.92c8.09,0,12.19,3.82,12.19,11.38S192.32,27.55,184.23,27.55Z"/><path class="cls-1" d="M0,16.18C0,26.76,8.19,32.3,16.27,32.3a18.4,18.4,0,0,0,10.36-3V24.9A15.67,15.67,0,0,1,17,28.25c-6.82,0-11.41-4.85-11.41-12.07S10.13,4.11,17,4.11a15.78,15.78,0,0,1,9.68,3.3V3A18.4,18.4,0,0,0,16.32,0C8.19.05,0,5.59,0,16.18Z"/><path class="cls-1" d="M101,16.18c0,10.58,8.18,16.12,16.27,16.12a18.4,18.4,0,0,0,10.36-3V24.9A15.67,15.67,0,0,1,118,28.25c-6.82,0-11.41-4.85-11.41-12.07S111.17,4.11,118,4.11a15.78,15.78,0,0,1,9.68,3.3V3a18.47,18.47,0,0,0-10.36-3C109.22.05,101,5.59,101,16.18Z"/></g></g></g></g></svg>